<svg width="168" height="49" viewBox="0 0 168 49" fill="none" xmlns="http://www.w3.org/2000/svg">
<g filter="url(#filter0_d_548_100285)">
<rect x="5" y="9.44922" width="34.1658" height="34.1658" rx="5.69429" transform="rotate(-7.48269 5 9.44922)" fill="white" shape-rendering="crispEdges"/>
<path d="M29.1054 15.0438C29.0059 14.677 28.4908 14.7447 28.4894 15.1247L28.4875 16.6888C28.4847 17.6652 27.8637 18.5141 26.9641 18.7682L25.524 19.1756C25.1736 19.2741 25.2445 19.8145 25.6086 19.8191L27.1049 19.8408C28.0397 19.854 28.8589 20.5137 29.1137 21.4563L29.5194 22.9669C29.6189 23.3336 30.134 23.266 30.1354 22.886L30.1373 21.3218C30.1401 20.3454 30.7611 19.4965 31.6607 19.2424L33.1008 18.8351C33.4512 18.7366 33.3803 18.1962 33.0162 18.1915L31.5199 18.1698C30.5851 18.1567 29.7659 17.4969 29.5111 16.5544L29.1054 15.0438Z" fill="#FF008A"/>
<path d="M27.7924 16.6788L27.7934 16.1921C27.5974 16.1916 27.3985 16.204 27.1981 16.2304C25.4712 16.4572 24.0984 17.654 23.5094 19.2327C22.5328 17.8597 20.8975 17.0579 19.1706 17.2847C16.6373 17.6175 14.8658 20.0371 15.2141 22.6887C15.7928 27.0945 21.9602 30.6828 25.2513 32.4947C27.9629 29.8944 32.9945 24.8351 32.4159 20.4293C32.3884 20.2201 32.349 20.0154 32.2966 19.8165L31.8496 19.9432C31.2487 20.1128 30.8344 20.6794 30.8324 21.3319L30.8304 22.8955C30.8281 24.118 29.1695 24.3359 28.8516 23.1554L28.4448 21.6455C28.2754 21.0155 27.7289 20.5751 27.1046 20.5665L25.6082 20.5448C24.4383 20.5285 24.2103 18.7925 25.3362 18.474L26.7763 18.0673C27.3772 17.8977 27.7914 17.3306 27.7924 16.6788Z" fill="#FF008A"/>
<path d="M29.1054 15.0438C29.0059 14.677 28.4908 14.7447 28.4894 15.1247L28.4875 16.6888C28.4847 17.6652 27.8637 18.5141 26.9641 18.7682L25.524 19.1756C25.1736 19.2741 25.2445 19.8145 25.6086 19.8191L27.1049 19.8408C28.0397 19.854 28.8589 20.5137 29.1137 21.4563L29.5194 22.9669C29.6189 23.3336 30.134 23.266 30.1354 22.886L30.1373 21.3218C30.1401 20.3454 30.7611 19.4965 31.6607 19.2424L33.1008 18.8351C33.4512 18.7366 33.3803 18.1962 33.0162 18.1915L31.5199 18.1698C30.5851 18.1567 29.7659 17.4969 29.5111 16.5544L29.1054 15.0438Z" stroke="white" stroke-width="0.2"/>
<path d="M27.7924 16.6788L27.7934 16.1921C27.5974 16.1916 27.3985 16.204 27.1981 16.2304C25.4712 16.4572 24.0984 17.654 23.5094 19.2327C22.5328 17.8597 20.8975 17.0579 19.1706 17.2847C16.6373 17.6175 14.8658 20.0371 15.2141 22.6887C15.7928 27.0945 21.9602 30.6828 25.2513 32.4947C27.9629 29.8944 32.9945 24.8351 32.4159 20.4293C32.3884 20.2201 32.349 20.0154 32.2966 19.8165L31.8496 19.9432C31.2487 20.1128 30.8344 20.6794 30.8324 21.3319L30.8304 22.8955C30.8281 24.118 29.1695 24.3359 28.8516 23.1554L28.4448 21.6455C28.2754 21.0155 27.7289 20.5751 27.1046 20.5665L25.6082 20.5448C24.4383 20.5285 24.2103 18.7925 25.3362 18.474L26.7763 18.0673C27.3772 17.8977 27.7914 17.3306 27.7924 16.6788Z" stroke="white" stroke-width="0.2"/>
</g>
<path d="M51.41 31.6621C51.042 31.6621 50.858 31.5261 50.858 31.2541V31.1581C50.858 31.0141 51.01 30.7741 51.314 30.4381C51.634 30.0861 51.794 29.7261 51.794 29.3581V16.9261C51.794 16.5741 51.634 16.2221 51.314 15.8701C51.01 15.5181 50.858 15.2621 50.858 15.1021V15.0061C50.858 14.7501 51.042 14.6221 51.41 14.6221H56.882C59.17 14.6221 61.01 15.0861 62.402 16.0141C63.81 16.9261 64.514 18.3341 64.514 20.2381C64.514 22.0461 63.89 23.4781 62.642 24.5341C61.394 25.5901 59.706 26.1181 57.578 26.1181H55.442V29.3581C55.442 29.7261 55.61 30.0861 55.946 30.4381C56.298 30.7741 56.474 31.0141 56.474 31.1581V31.2541C56.474 31.5261 56.29 31.6621 55.922 31.6621H51.41ZM56.474 24.7021H57.578C58.57 24.7021 59.346 24.3661 59.906 23.6941C60.466 23.0061 60.746 22.1421 60.746 21.1021C60.746 19.5501 60.354 18.3261 59.57 17.4301C58.802 16.5181 57.906 16.0621 56.882 16.0621H56.234C55.706 16.0621 55.442 16.4061 55.442 17.0941V23.6221C55.442 24.3421 55.786 24.7021 56.474 24.7021ZM70.0077 17.8621C69.5917 18.2461 69.0317 18.4381 68.3277 18.4381C67.6237 18.4381 67.0477 18.2461 66.5997 17.8621C66.1677 17.4621 65.9517 16.9501 65.9517 16.3261C65.9517 15.7181 66.1677 15.2221 66.5997 14.8381C67.0477 14.4381 67.6237 14.2381 68.3277 14.2381C69.0317 14.2381 69.5917 14.4381 70.0077 14.8381C70.4397 15.2221 70.6557 15.7181 70.6557 16.3261C70.6557 16.9501 70.4397 17.4621 70.0077 17.8621ZM66.1437 31.6621C65.7917 31.6621 65.6157 31.5261 65.6157 31.2541V31.1581C65.6157 30.9981 65.7677 30.7501 66.0717 30.4141C66.3757 30.0781 66.5277 29.7181 66.5277 29.3341V23.9101C66.5277 23.5101 66.3757 23.1341 66.0717 22.7821C65.7677 22.4301 65.6157 22.1901 65.6157 22.0621V21.9901C65.6157 21.8301 65.7837 21.6621 66.1197 21.4861L69.1197 19.9981C69.4237 19.8701 69.6637 19.8621 69.8397 19.9741C70.0157 20.0701 70.1037 20.2381 70.1037 20.4781V29.3341C70.1037 29.7181 70.2717 30.0781 70.6077 30.4141C70.9437 30.7501 71.1117 30.9981 71.1117 31.1581V31.2541C71.1117 31.5261 70.9277 31.6621 70.5597 31.6621H66.1437ZM84.9378 29.3341C84.9698 29.7181 85.1218 30.0781 85.3938 30.4141C85.6658 30.7501 85.8018 31.0061 85.8018 31.1821V31.2781C85.8018 31.5501 85.6178 31.6861 85.2498 31.6861H81.0978C80.7298 31.6861 80.5458 31.5501 80.5458 31.2781V31.1821C80.5458 31.0221 80.6898 30.7741 80.9778 30.4381C81.2818 30.1021 81.4258 29.7341 81.4098 29.3341L81.1698 24.8941C81.0578 22.4781 80.3618 21.2701 79.0818 21.2701C78.4418 21.2701 77.9378 21.5101 77.5698 21.9901C77.2178 22.4701 77.0418 23.1101 77.0418 23.9101V29.3581C77.0418 29.7421 77.2098 30.1021 77.5458 30.4381C77.8978 30.7741 78.0738 31.0221 78.0738 31.1821V31.2781C78.0738 31.5501 77.8898 31.6861 77.5218 31.6861H73.0578C72.6898 31.6861 72.5058 31.5501 72.5058 31.2781V31.1821C72.5058 31.0221 72.6738 30.7741 73.0098 30.4381C73.3618 30.1021 73.5378 29.7421 73.5378 29.3581V23.7661C73.5378 23.5261 73.4738 23.3101 73.3458 23.1181C73.2338 22.9261 73.0978 22.7901 72.9378 22.7101C72.7938 22.6141 72.6578 22.5021 72.5298 22.3741C72.4178 22.2461 72.3618 22.1181 72.3618 21.9901V21.8941C72.3618 21.7181 72.5218 21.5501 72.8418 21.3901L75.6978 19.9981C75.9698 19.8701 76.1698 19.8621 76.2978 19.9741C76.4418 20.0701 76.5138 20.2461 76.5138 20.5021V21.8461C77.2018 20.5501 78.3858 19.9021 80.0658 19.9021C81.2818 19.9021 82.3138 20.3101 83.1618 21.1261C84.0258 21.9421 84.5218 23.2381 84.6498 25.0141L84.9378 29.3341ZM99.0393 29.8381C99.1193 29.9661 99.3353 30.1581 99.6873 30.4141C100.055 30.6701 100.239 30.9181 100.239 31.1581V31.2541C100.239 31.5261 100.087 31.6621 99.7833 31.6621H95.3913C95.0713 31.6621 94.9113 31.5181 94.9113 31.2301V31.1341C94.9113 30.9581 95.0233 30.7501 95.2473 30.5101C95.4713 30.2701 95.5193 30.0461 95.3913 29.8381L93.0153 26.2621C92.4553 26.3901 91.8793 26.4621 91.2873 26.4781V29.3101C91.2873 29.6781 91.4633 30.0301 91.8153 30.3661C92.1673 30.7021 92.3433 30.9661 92.3433 31.1581V31.2541C92.3433 31.5261 92.1593 31.6621 91.7913 31.6621H87.3273C86.9593 31.6621 86.7753 31.5261 86.7753 31.2541V31.1581C86.7753 30.9661 86.9273 30.7021 87.2313 30.3661C87.5513 30.0301 87.7113 29.6781 87.7113 29.3101V17.5741C87.7113 17.1741 87.5273 16.7981 87.1593 16.4461C86.8073 16.0781 86.6313 15.8301 86.6313 15.7021V15.6301C86.6313 15.4381 86.7913 15.2781 87.1113 15.1501L90.3513 13.6381C90.6393 13.5101 90.8633 13.5021 91.0233 13.6141C91.1993 13.7101 91.2873 13.8701 91.2873 14.0941V24.9661C92.1673 24.9181 92.8793 24.7101 93.4233 24.3421C93.9833 23.9741 94.3673 23.5501 94.5753 23.0701C94.7993 22.5901 94.9913 22.1101 95.1513 21.6301C95.3113 21.1501 95.5273 20.7501 95.7993 20.4301C96.0713 20.0941 96.4473 19.9261 96.9273 19.9261C97.4393 19.9261 97.8233 20.0621 98.0793 20.3341C98.3513 20.6061 98.4873 20.9661 98.4873 21.4141C98.4873 21.9901 98.2553 22.6301 97.7913 23.3341C97.3433 24.0381 96.6873 24.6541 95.8233 25.1821L99.0393 29.8381ZM101.637 31.6621C101.285 31.6621 101.109 31.5261 101.109 31.2541V31.1821C101.109 31.0221 101.261 30.7741 101.565 30.4381C101.869 30.0861 102.021 29.7261 102.021 29.3581V16.9261C102.021 16.5421 101.869 16.1901 101.565 15.8701C101.261 15.5341 101.109 15.2781 101.109 15.1021V15.0061C101.109 14.7501 101.285 14.6221 101.637 14.6221H106.149C106.533 14.6221 106.725 14.7501 106.725 15.0061V15.1021C106.725 15.2781 106.549 15.5341 106.197 15.8701C105.861 16.1901 105.693 16.5421 105.693 16.9261V28.8541C105.693 29.2381 105.773 29.5581 105.933 29.8141C106.109 30.0701 106.365 30.1981 106.701 30.1981H110.157C110.557 30.1981 110.925 30.0381 111.261 29.7181C111.597 29.3821 111.853 29.0221 112.029 28.6381C112.221 28.2541 112.429 27.9021 112.653 27.5821C112.893 27.2461 113.125 27.0781 113.349 27.0781H113.637C113.989 27.0781 114.125 27.2541 114.045 27.6061L113.421 30.9661C113.325 31.4301 113.077 31.6621 112.677 31.6621H101.637ZM127.765 21.1501C127.765 21.2461 127.597 21.4781 127.261 21.8461C126.925 22.2141 126.757 22.6221 126.757 23.0701V29.3581C126.757 29.7261 126.909 30.0861 127.213 30.4381C127.533 30.7741 127.693 31.0221 127.693 31.1821V31.2541C127.693 31.5261 127.533 31.6621 127.213 31.6621H124.261C124.101 31.6621 123.965 31.6141 123.853 31.5181C123.757 31.4221 123.709 31.2941 123.709 31.1341V30.5581C122.957 31.4541 121.901 31.9021 120.541 31.9021C118.989 31.9021 117.661 31.3661 116.557 30.2941C115.453 29.2061 114.901 27.7341 114.901 25.8781C114.901 24.1341 115.453 22.7021 116.557 21.5821C117.661 20.4621 118.997 19.9021 120.565 19.9021C121.845 19.9021 122.893 20.3101 123.709 21.1261V20.6461C123.709 20.4221 123.805 20.2541 123.997 20.1421C124.189 20.0141 124.437 19.9821 124.741 20.0461L127.261 20.4781C127.597 20.5421 127.765 20.7421 127.765 21.0781V21.1501ZM121.333 30.8701C121.877 30.8701 122.349 30.6461 122.749 30.1981C123.165 29.7341 123.373 29.1021 123.373 28.3021V24.0781C123.373 23.2301 123.109 22.4941 122.581 21.8701C122.069 21.2461 121.461 20.9341 120.757 20.9341C120.021 20.9341 119.437 21.2461 119.005 21.8701C118.573 22.4781 118.349 23.3421 118.333 24.4621C118.301 25.3741 118.389 26.3101 118.597 27.2701C118.821 28.2301 119.173 29.0701 119.653 29.7901C120.149 30.4941 120.709 30.8541 121.333 30.8701ZM140.983 29.2141C140.983 29.6461 141.039 29.9741 141.151 30.1981C141.279 30.4061 141.415 30.5261 141.559 30.5581C141.703 30.5741 141.831 30.6221 141.943 30.7021C142.071 30.7821 142.135 30.9181 142.135 31.1101C142.135 31.5741 141.423 31.8061 139.999 31.8061C139.295 31.8061 138.767 31.6941 138.415 31.4701C138.079 31.2301 137.895 30.8221 137.863 30.2461C137.191 31.3501 136.031 31.9021 134.383 31.9021C133.087 31.9021 132.015 31.4701 131.167 30.6061C130.335 29.7261 129.919 28.4941 129.919 26.9101V22.8541C129.919 22.4541 129.759 22.0861 129.439 21.7501C129.135 21.3981 128.983 21.1581 128.983 21.0301V20.9581C128.983 20.6701 129.151 20.5021 129.487 20.4541L132.511 19.9981C133.167 19.9181 133.495 20.0621 133.495 20.4301L133.423 27.2701C133.423 29.4461 134.087 30.5341 135.415 30.5341C136.007 30.5341 136.495 30.2781 136.879 29.7661C137.279 29.2381 137.479 28.5581 137.479 27.7261V22.8541C137.479 22.4541 137.319 22.0861 136.999 21.7501C136.679 21.3981 136.519 21.1581 136.519 21.0301V20.9581C136.519 20.6701 136.679 20.5021 136.999 20.4541L140.071 19.9981C140.679 19.9341 140.983 20.0781 140.983 20.4301V29.2141ZM150.63 19.9021C151.318 19.9021 151.854 20.1101 152.238 20.5261C152.638 20.9261 152.838 21.4461 152.838 22.0861C152.838 23.3501 152.326 23.9821 151.302 23.9821C150.886 23.9821 150.558 23.8781 150.318 23.6701C150.094 23.4461 149.958 23.2061 149.91 22.9501C149.862 22.6941 149.766 22.4621 149.622 22.2541C149.478 22.0301 149.262 21.9181 148.974 21.9181C148.542 21.9181 148.222 22.1741 148.014 22.6861C147.806 23.1981 147.702 23.8221 147.702 24.5581V29.3581C147.702 29.6461 147.798 29.9021 147.99 30.1261C148.198 30.3341 148.398 30.5181 148.59 30.6781C148.798 30.8381 148.902 30.9981 148.902 31.1581V31.2541C148.902 31.5261 148.726 31.6621 148.374 31.6621H143.934C143.566 31.6621 143.382 31.5261 143.382 31.2541V31.1581C143.382 30.9981 143.534 30.7501 143.838 30.4141C144.158 30.0781 144.318 29.7261 144.318 29.3581V23.7421C144.318 23.3581 144.134 23.0141 143.766 22.7101C143.398 22.4061 143.214 22.1741 143.214 22.0141V21.9181C143.214 21.6941 143.382 21.5021 143.718 21.3421L146.598 19.9981C147.11 19.7581 147.366 19.9181 147.366 20.4781V22.2781C147.91 20.6941 148.998 19.9021 150.63 19.9021ZM166.155 21.1501C166.155 21.2461 165.987 21.4781 165.651 21.8461C165.315 22.2141 165.147 22.6221 165.147 23.0701V29.3581C165.147 29.7261 165.299 30.0861 165.603 30.4381C165.923 30.7741 166.083 31.0221 166.083 31.1821V31.2541C166.083 31.5261 165.923 31.6621 165.603 31.6621H162.651C162.491 31.6621 162.355 31.6141 162.243 31.5181C162.147 31.4221 162.099 31.2941 162.099 31.1341V30.5581C161.347 31.4541 160.291 31.9021 158.931 31.9021C157.379 31.9021 156.051 31.3661 154.947 30.2941C153.843 29.2061 153.291 27.7341 153.291 25.8781C153.291 24.1341 153.843 22.7021 154.947 21.5821C156.051 20.4621 157.387 19.9021 158.955 19.9021C160.235 19.9021 161.283 20.3101 162.099 21.1261V20.6461C162.099 20.4221 162.195 20.2541 162.387 20.1421C162.579 20.0141 162.827 19.9821 163.131 20.0461L165.651 20.4781C165.987 20.5421 166.155 20.7421 166.155 21.0781V21.1501ZM159.723 30.8701C160.267 30.8701 160.739 30.6461 161.139 30.1981C161.555 29.7341 161.763 29.1021 161.763 28.3021V24.0781C161.763 23.2301 161.499 22.4941 160.971 21.8701C160.459 21.2461 159.851 20.9341 159.147 20.9341C158.411 20.9341 157.827 21.2461 157.395 21.8701C156.963 22.4781 156.739 23.3421 156.723 24.4621C156.691 25.3741 156.779 26.3101 156.987 27.2701C157.211 28.2301 157.563 29.0701 158.043 29.7901C158.539 30.4941 159.099 30.8541 159.723 30.8701Z" fill="black"/>
<defs>
<filter id="filter0_d_548_100285" x="-0.694292" y="-0.694292" width="49.7128" height="49.7126" filterUnits="userSpaceOnUse" color-interpolation-filters="sRGB">
<feFlood flood-opacity="0" result="BackgroundImageFix"/>
<feColorMatrix in="SourceAlpha" type="matrix" values="0 0 0 0 0 0 0 0 0 0 0 0 0 0 0 0 0 0 127 0" result="hardAlpha"/>
<feOffset/>
<feGaussianBlur stdDeviation="2.84715"/>
<feComposite in2="hardAlpha" operator="out"/>
<feColorMatrix type="matrix" values="0 0 0 0 0 0 0 0 0 0 0 0 0 0 0 0 0 0 0.15 0"/>
<feBlend mode="normal" in2="BackgroundImageFix" result="effect1_dropShadow_548_100285"/>
<feBlend mode="normal" in="SourceGraphic" in2="effect1_dropShadow_548_100285" result="shape"/>
</filter>
</defs>
</svg>
