<svg width="52" height="52" viewBox="0 0 52 52" fill="none" xmlns="http://www.w3.org/2000/svg">
<g filter="url(#filter0_d_580_100746)">
<rect x="6.16211" y="10.8059" width="35.6598" height="35.6598" rx="5.9433" transform="rotate(-7.48269 6.16211 10.8059)" fill="white" shape-rendering="crispEdges"/>
<path d="M31.3215 16.645C31.2177 16.2622 30.68 16.3329 30.6786 16.7294L30.6766 18.362C30.6738 19.3811 30.0256 20.2671 29.0866 20.5323L27.5836 20.9575C27.2178 21.0603 27.2919 21.6243 27.6718 21.6292L29.2336 21.6518C30.2093 21.6656 31.0643 22.3542 31.3302 23.3379L31.7537 24.9146C31.8575 25.2974 32.3952 25.2268 32.3966 24.8302L32.3986 23.1976C32.4015 22.1785 33.0496 21.2925 33.9886 21.0273L35.4916 20.6021C35.8574 20.4993 35.7833 19.9353 35.4034 19.9304L33.8416 19.9078C32.866 19.894 32.011 19.2054 31.745 18.2217L31.3215 16.645Z" fill="#FF008A"/>
<path d="M29.9511 18.3515L29.9522 17.8436C29.7476 17.8431 29.54 17.856 29.3308 17.8835C27.5284 18.1202 26.0956 19.3694 25.4809 21.0171C24.4615 19.5841 22.7547 18.7472 20.9523 18.984C18.3083 19.3312 16.4593 21.8567 16.8228 24.6242C17.4268 29.2227 23.8639 32.9679 27.2989 34.8591C30.1291 32.145 35.3808 26.8645 34.7768 22.2661C34.7481 22.0477 34.707 21.834 34.6523 21.6265L34.1858 21.7587C33.5586 21.9357 33.1262 22.527 33.1241 23.2081L33.122 24.84C33.1196 26.1161 31.3885 26.3435 31.0566 25.1113L30.632 23.5354C30.4553 22.8778 29.8848 22.4182 29.2332 22.4092L27.6714 22.3866C26.4504 22.3696 26.2124 20.5576 27.3875 20.2253L28.8906 19.8007C29.5178 19.6238 29.9501 19.0318 29.9511 18.3515Z" fill="#FF008A"/>
<path d="M31.3215 16.645C31.2177 16.2622 30.68 16.3329 30.6786 16.7294L30.6766 18.362C30.6738 19.3811 30.0256 20.2671 29.0866 20.5323L27.5836 20.9575C27.2178 21.0603 27.2919 21.6243 27.6718 21.6292L29.2336 21.6518C30.2093 21.6656 31.0643 22.3542 31.3302 23.3379L31.7537 24.9146C31.8575 25.2974 32.3952 25.2268 32.3966 24.8302L32.3986 23.1976C32.4015 22.1785 33.0496 21.2925 33.9886 21.0273L35.4916 20.6021C35.8574 20.4993 35.7833 19.9353 35.4034 19.9304L33.8416 19.9078C32.866 19.894 32.011 19.2054 31.745 18.2217L31.3215 16.645Z" stroke="white" stroke-width="0.208746"/>
<path d="M29.9511 18.3515L29.9522 17.8436C29.7476 17.8431 29.54 17.856 29.3308 17.8835C27.5284 18.1202 26.0956 19.3694 25.4809 21.0171C24.4615 19.5841 22.7547 18.7472 20.9523 18.984C18.3083 19.3312 16.4593 21.8567 16.8228 24.6242C17.4268 29.2227 23.8639 32.9679 27.2989 34.8591C30.1291 32.145 35.3808 26.8645 34.7768 22.2661C34.7481 22.0477 34.707 21.834 34.6523 21.6265L34.1858 21.7587C33.5586 21.9357 33.1262 22.527 33.1241 23.2081L33.122 24.84C33.1196 26.1161 31.3885 26.3435 31.0566 25.1113L30.632 23.5354C30.4553 22.8778 29.8848 22.4182 29.2332 22.4092L27.6714 22.3866C26.4504 22.3696 26.2124 20.5576 27.3875 20.2253L28.8906 19.8007C29.5178 19.6238 29.9501 19.0318 29.9511 18.3515Z" stroke="white" stroke-width="0.208746"/>
</g>
<defs>
<filter id="filter0_d_580_100746" x="0.218808" y="0.218808" width="51.8866" height="51.8866" filterUnits="userSpaceOnUse" color-interpolation-filters="sRGB">
<feFlood flood-opacity="0" result="BackgroundImageFix"/>
<feColorMatrix in="SourceAlpha" type="matrix" values="0 0 0 0 0 0 0 0 0 0 0 0 0 0 0 0 0 0 127 0" result="hardAlpha"/>
<feOffset/>
<feGaussianBlur stdDeviation="2.97165"/>
<feComposite in2="hardAlpha" operator="out"/>
<feColorMatrix type="matrix" values="0 0 0 0 0 0 0 0 0 0 0 0 0 0 0 0 0 0 0.15 0"/>
<feBlend mode="normal" in2="BackgroundImageFix" result="effect1_dropShadow_580_100746"/>
<feBlend mode="normal" in="SourceGraphic" in2="effect1_dropShadow_580_100746" result="shape"/>
</filter>
</defs>
</svg>
