<svg width="73" height="72" viewBox="0 0 73 72" fill="none" xmlns="http://www.w3.org/2000/svg">
<g filter="url(#filter0_d_404_70545)">
<rect x="8.6665" y="8" width="56" height="56" rx="8" fill="white" shape-rendering="crispEdges"/>
<path d="M48 47.3334L50 49.3334" stroke="#EC4899" stroke-width="1.66667" stroke-linecap="round" stroke-linejoin="round"/>
<path d="M42 44.6667C42 46.5076 43.4924 48 45.3333 48C46.2555 48 47.09 47.6256 47.6935 47.0206C48.2948 46.4176 48.6667 45.5856 48.6667 44.6667C48.6667 42.8258 47.1743 41.3334 45.3333 41.3334C43.4924 41.3334 42 42.8258 42 44.6667Z" stroke="#EC4899" stroke-width="1.66667" stroke-linecap="round" stroke-linejoin="round"/>
<path d="M26 28V36C26 36 26 40 35.3333 40C44.6667 40 44.6667 36 44.6667 36V28" stroke="#EC4899" stroke-width="1.66667" stroke-linecap="round" stroke-linejoin="round"/>
<path d="M35.3333 24C44.6667 24 44.6667 28 44.6667 28C44.6667 28 44.6667 32 35.3333 32C26 32 26 28 26 28C26 28 26 24 35.3333 24Z" stroke="#EC4899" stroke-width="1.66667" stroke-linecap="round" stroke-linejoin="round"/>
<path d="M35.3333 48C26 48 26 44 26 44V36" stroke="#EC4899" stroke-width="1.66667" stroke-linecap="round" stroke-linejoin="round"/>
</g>
<defs>
<filter id="filter0_d_404_70545" x="0.666504" y="0" width="72" height="72" filterUnits="userSpaceOnUse" color-interpolation-filters="sRGB">
<feFlood flood-opacity="0" result="BackgroundImageFix"/>
<feColorMatrix in="SourceAlpha" type="matrix" values="0 0 0 0 0 0 0 0 0 0 0 0 0 0 0 0 0 0 127 0" result="hardAlpha"/>
<feOffset/>
<feGaussianBlur stdDeviation="4"/>
<feComposite in2="hardAlpha" operator="out"/>
<feColorMatrix type="matrix" values="0 0 0 0 0 0 0 0 0 0 0 0 0 0 0 0 0 0 0.15 0"/>
<feBlend mode="normal" in2="BackgroundImageFix" result="effect1_dropShadow_404_70545"/>
<feBlend mode="normal" in="SourceGraphic" in2="effect1_dropShadow_404_70545" result="shape"/>
</filter>
</defs>
</svg>
