<svg width="73" height="72" viewBox="0 0 73 72" fill="none" xmlns="http://www.w3.org/2000/svg">
<g filter="url(#filter0_d_404_70565)">
<rect x="8.33301" y="8" width="56" height="56" rx="8" fill="white" shape-rendering="crispEdges"/>
<path d="M49.3995 38.6665C48.164 44.7525 42.7834 49.3332 36.3328 49.3332C28.969 49.3332 22.9995 43.3637 22.9995 35.9999C22.9995 29.0861 28.2618 23.4014 34.9995 22.7324" stroke="#EC4899" stroke-width="1.66667" stroke-linecap="round" stroke-linejoin="round"/>
<path d="M28.9992 33.3333C28.631 33.3333 28.3325 33.0349 28.3325 32.6667C28.3325 32.2985 28.631 32 28.9992 32C29.3674 32 29.6659 32.2985 29.6659 32.6667C29.6659 33.0349 29.3674 33.3333 28.9992 33.3333Z" stroke="#EC4899" stroke-width="1.66667" stroke-linecap="round" stroke-linejoin="round"/>
<path d="M47.6662 25.3333C47.298 25.3333 46.9995 25.0349 46.9995 24.6667C46.9995 24.2985 47.298 24 47.6662 24C48.0343 24 48.3328 24.2985 48.3328 24.6667C48.3328 25.0349 48.0343 25.3333 47.6662 25.3333Z" stroke="#EC4899" stroke-width="1.66667" stroke-linecap="round" stroke-linejoin="round"/>
<path d="M36.3328 45.3333C35.5964 45.3333 34.9995 44.7364 34.9995 44C34.9995 43.2636 35.5964 42.6666 36.3328 42.6666C37.0692 42.6666 37.6662 43.2636 37.6662 44C37.6662 44.7364 37.0692 45.3333 36.3328 45.3333Z" stroke="#EC4899" stroke-width="1.66667" stroke-linecap="round" stroke-linejoin="round"/>
<path d="M29.666 40.0133L29.6793 39.9985" stroke="#EC4899" stroke-width="1.66667" stroke-linecap="round" stroke-linejoin="round"/>
<path d="M42.9995 40.0133L43.0128 39.9985" stroke="#EC4899" stroke-width="1.66667" stroke-linecap="round" stroke-linejoin="round"/>
<path d="M34.9995 36.0133L35.0128 35.9985" stroke="#EC4899" stroke-width="1.66667" stroke-linecap="round" stroke-linejoin="round"/>
<path d="M48.3325 32.0133L48.3459 31.9985" stroke="#EC4899" stroke-width="1.66667" stroke-linecap="round" stroke-linejoin="round"/>
<path d="M42.9995 28.0133L43.0128 27.9985" stroke="#EC4899" stroke-width="1.66667" stroke-linecap="round" stroke-linejoin="round"/>
<path d="M34.999 22.6666C34.3323 24.6666 35.6655 26.6666 37.7796 26.6666C34.999 31.3333 37.6656 36 44.3323 35.3333C44.3323 38.6666 47.6656 39.3333 49.2654 38.6848" stroke="#EC4899" stroke-width="1.66667" stroke-linecap="round" stroke-linejoin="round"/>
</g>
<defs>
<filter id="filter0_d_404_70565" x="0.333008" y="0" width="72" height="72" filterUnits="userSpaceOnUse" color-interpolation-filters="sRGB">
<feFlood flood-opacity="0" result="BackgroundImageFix"/>
<feColorMatrix in="SourceAlpha" type="matrix" values="0 0 0 0 0 0 0 0 0 0 0 0 0 0 0 0 0 0 127 0" result="hardAlpha"/>
<feOffset/>
<feGaussianBlur stdDeviation="4"/>
<feComposite in2="hardAlpha" operator="out"/>
<feColorMatrix type="matrix" values="0 0 0 0 0 0 0 0 0 0 0 0 0 0 0 0 0 0 0.15 0"/>
<feBlend mode="normal" in2="BackgroundImageFix" result="effect1_dropShadow_404_70565"/>
<feBlend mode="normal" in="SourceGraphic" in2="effect1_dropShadow_404_70565" result="shape"/>
</filter>
</defs>
</svg>
