<svg width="154" height="257" viewBox="0 0 154 257" fill="none" xmlns="http://www.w3.org/2000/svg">
<g filter="url(#filter0_d_522_100250)">
<rect x="72.7734" y="51.7998" width="36.3454" height="36.3454" rx="6.1727" transform="rotate(5.95909 72.7734 51.7998)" fill="white" shape-rendering="crispEdges"/>
<mask id="mask0_522_100250" style="mask-type:luminance" maskUnits="userSpaceOnUse" x="75" y="58" width="28" height="27">
<path d="M102.142 61.0717L78.272 58.5801L75.7803 82.4504L99.6506 84.942L102.142 61.0717Z" fill="white"/>
</mask>
<g mask="url(#mask0_522_100250)">
<path d="M94.6661 71.7612L92.1777 77.2483C92.0968 77.4267 91.9341 77.5543 91.7416 77.5903L79.7669 79.8309C79.2898 79.9201 78.9096 79.4354 79.1101 78.9933L84.0618 68.0742C84.1339 67.9154 84.2714 67.7958 84.4387 67.7465L90.0264 66.0997C90.2588 66.0312 90.5095 66.1092 90.6621 66.2973L94.5856 71.1355C94.7288 71.312 94.76 71.5542 94.6661 71.7612Z" stroke="#6366F1" stroke-linecap="round" stroke-linejoin="round"/>
<path d="M79.4111 79.4126L86.4013 73.7437" stroke="#6366F1" stroke-linecap="round" stroke-linejoin="round"/>
<path d="M96.245 63.6552L98.3505 66.2515C98.9795 67.027 98.8777 68.1621 98.1209 68.8134C97.3321 69.4922 96.1385 69.3851 95.4831 68.5769L93.3776 65.9806C92.74 65.1943 92.8545 64.0412 93.6344 63.3958C94.4253 62.7412 95.5984 62.8578 96.245 63.6552Z" fill="#6366F1"/>
<path d="M96.245 63.6552L98.3505 66.2515C98.9795 67.027 98.8777 68.1621 98.1209 68.8134C97.3321 69.4922 96.1385 69.3851 95.4831 68.5769L93.3776 65.9806C92.74 65.1943 92.8545 64.0412 93.6344 63.3958C94.4253 62.7412 95.5984 62.8578 96.245 63.6552Z" fill="white" fill-opacity="0.8"/>
<path d="M96.245 63.6552L98.3505 66.2515C98.9795 67.027 98.8777 68.1621 98.1209 68.8134C97.3321 69.4922 96.1385 69.3851 95.4831 68.5769L93.3776 65.9806C92.74 65.1943 92.8545 64.0412 93.6344 63.3958C94.4253 62.7412 95.5984 62.8578 96.245 63.6552Z" stroke="#6366F1" stroke-linecap="round" stroke-linejoin="round"/>
<path d="M88.7317 71.8537C88.2099 71.2103 87.2652 71.1116 86.6218 71.6335C85.9784 72.1553 85.8798 73.0999 86.4016 73.7433C86.9234 74.3867 87.868 74.4854 88.5115 73.9635C89.1548 73.4417 89.2534 72.4971 88.7317 71.8537Z" stroke="#6366F1" stroke-linecap="round" stroke-linejoin="round"/>
</g>
</g>
<g filter="url(#filter1_d_522_100250)">
<rect x="11.397" y="187" width="27.2591" height="27.2591" rx="4.62953" transform="rotate(15.7456 11.397 187)" fill="white" shape-rendering="crispEdges"/>
<g clip-path="url(#clip0_522_100250)">
<path d="M17.7977 195.173L15.6333 194.563L15.0231 196.727L17.1875 197.338L17.7977 195.173Z" fill="#10B981"/>
<path d="M17.7977 195.173L15.6333 194.563L15.0231 196.727L17.1875 197.338L17.7977 195.173Z" fill="white" fill-opacity="0.8"/>
<path d="M17.7977 195.173L15.6333 194.563L15.0231 196.727L17.1875 197.338L17.7977 195.173Z" stroke="#10B981" stroke-width="0.75" stroke-miterlimit="1.5" stroke-linecap="round" stroke-linejoin="round"/>
<path d="M17.4927 196.257L27.5988 199.106" stroke="#10B981" stroke-width="0.75" stroke-miterlimit="1.5" stroke-linecap="round" stroke-linejoin="round"/>
<path d="M16.106 197.033L13.2562 207.14" stroke="#10B981" stroke-width="0.75" stroke-miterlimit="1.5" stroke-linecap="round" stroke-linejoin="round"/>
<path d="M28.3755 200.493L25.5257 210.601" stroke="#10B981" stroke-width="0.75" stroke-miterlimit="1.5" stroke-linecap="round" stroke-linejoin="round"/>
<path d="M14.0327 208.528L24.1388 211.378" stroke="#10B981" stroke-width="0.75" stroke-miterlimit="1.5" stroke-linecap="round" stroke-linejoin="round"/>
<path d="M14.3378 207.445L12.1733 206.834L11.5631 208.999L13.7275 209.609L14.3378 207.445Z" fill="#10B981"/>
<path d="M14.3378 207.445L12.1733 206.834L11.5631 208.999L13.7275 209.609L14.3378 207.445Z" fill="white" fill-opacity="0.8"/>
<path d="M14.3378 207.445L12.1733 206.834L11.5631 208.999L13.7275 209.609L14.3378 207.445Z" stroke="#10B981" stroke-width="0.75" stroke-miterlimit="1.5" stroke-linecap="round" stroke-linejoin="round"/>
<path d="M30.0682 198.634L27.9038 198.024L27.2936 200.188L29.458 200.799L30.0682 198.634Z" fill="#10B981"/>
<path d="M30.0682 198.634L27.9038 198.024L27.2936 200.188L29.458 200.799L30.0682 198.634Z" fill="white" fill-opacity="0.8"/>
<path d="M30.0682 198.634L27.9038 198.024L27.2936 200.188L29.458 200.799L30.0682 198.634Z" stroke="#10B981" stroke-width="0.75" stroke-miterlimit="1.5" stroke-linecap="round" stroke-linejoin="round"/>
<path d="M26.6083 210.906L24.4438 210.296L23.8336 212.46L25.998 213.07L26.6083 210.906Z" fill="#10B981"/>
<path d="M26.6083 210.906L24.4438 210.296L23.8336 212.46L25.998 213.07L26.6083 210.906Z" fill="white" fill-opacity="0.8"/>
<path d="M26.6083 210.906L24.4438 210.296L23.8336 212.46L25.998 213.07L26.6083 210.906Z" stroke="#10B981" stroke-width="0.75" stroke-miterlimit="1.5" stroke-linecap="round" stroke-linejoin="round"/>
<path fill-rule="evenodd" clip-rule="evenodd" d="M19.4811 205.779L18.7402 200.116L23.1827 203.706L20.8152 203.817L19.4811 205.779Z" fill="#10B981"/>
<path fill-rule="evenodd" clip-rule="evenodd" d="M19.4811 205.779L18.7402 200.116L23.1827 203.706L20.8152 203.817L19.4811 205.779Z" fill="white" fill-opacity="0.8"/>
<path fill-rule="evenodd" clip-rule="evenodd" d="M19.4811 205.779L18.7402 200.116L23.1827 203.706L20.8152 203.817L19.4811 205.779Z" stroke="#10B981" stroke-width="0.75" stroke-miterlimit="1.5" stroke-linecap="round" stroke-linejoin="round"/>
<path d="M20.8154 203.818L22.369 206.594" stroke="#10B981" stroke-width="0.75" stroke-miterlimit="1.5" stroke-linecap="round" stroke-linejoin="round"/>
</g>
</g>
<g filter="url(#filter2_d_522_100250)">
<rect x="18.8647" y="214.942" width="36.3454" height="36.3454" rx="6.1727" transform="rotate(-6.44237 18.8647 214.942)" fill="white" shape-rendering="crispEdges"/>
<g clip-path="url(#clip1_522_100250)">
<path d="M37.3609 233.362C37.4937 232.089 38.0303 230.917 38.8527 229.995C37.6913 229.17 36.2335 228.753 34.7065 228.926C34.0613 228.999 33.4516 229.171 32.8911 229.427C33.5797 231.445 35.2979 232.939 37.3609 233.362Z" fill="#EAB308"/>
<path d="M37.3609 233.362C37.4937 232.089 38.0303 230.917 38.8527 229.995C37.6913 229.17 36.2335 228.753 34.7065 228.926C34.0613 228.999 33.4516 229.171 32.8911 229.427C33.5797 231.445 35.2979 232.939 37.3609 233.362Z" fill="white" fill-opacity="0.8"/>
<path d="M41.0577 232.945C42.9743 232.072 44.3162 230.232 44.5374 228.112C43.934 227.988 43.3012 227.955 42.656 228.028C41.129 228.201 39.8009 228.932 38.8527 229.995C39.86 230.711 40.6443 231.733 41.0577 232.945Z" fill="#EAB308"/>
<path d="M41.0577 232.945C42.9743 232.072 44.3162 230.232 44.5374 228.112C43.934 227.988 43.3012 227.955 42.656 228.028C41.129 228.201 39.8009 228.932 38.8527 229.995C39.86 230.711 40.6443 231.733 41.0577 232.945Z" fill="white" fill-opacity="0.8"/>
<path d="M37.3671 234.664C37.5665 236.429 38.5133 237.929 39.8563 238.883C40.9528 237.654 41.5412 235.981 41.3419 234.215C41.292 233.773 41.1955 233.349 41.0577 232.945C40.4972 233.2 39.8875 233.373 39.2423 233.445C38.5971 233.518 37.9643 233.486 37.3609 233.362C37.3167 233.787 37.3173 234.222 37.3671 234.664Z" fill="#EAB308"/>
<path d="M37.3671 234.664C37.5665 236.429 38.5133 237.929 39.8563 238.883C40.9528 237.654 41.5412 235.981 41.3419 234.215C41.292 233.773 41.1955 233.349 41.0577 232.945C40.4972 233.2 39.8875 233.373 39.2423 233.445C38.5971 233.518 37.9643 233.486 37.3609 233.362C37.3167 233.787 37.3173 234.222 37.3671 234.664Z" fill="white" fill-opacity="0.8"/>
<path d="M37.3609 233.362C37.3167 233.787 37.3173 234.222 37.3671 234.664C37.5665 236.429 38.5133 237.929 39.8563 238.883M37.3609 233.362C37.9643 233.486 38.5971 233.518 39.2423 233.445C39.8875 233.373 40.4972 233.2 41.0577 232.945M37.3609 233.362C35.2979 232.939 33.5797 231.445 32.8911 229.427M37.3609 233.362C37.4937 232.089 38.0303 230.917 38.8527 229.995M41.0577 232.945C41.1955 233.349 41.292 233.773 41.3419 234.215C41.5412 235.981 40.9528 237.654 39.8563 238.883M41.0577 232.945C42.9743 232.072 44.3162 230.232 44.5374 228.112M41.0577 232.945C40.6443 231.733 39.86 230.711 38.8527 229.995M44.5374 228.112C44.5816 227.687 44.581 227.252 44.5312 226.81C44.1594 223.517 41.1886 221.149 37.8958 221.521C34.6031 221.893 32.2351 224.864 32.6069 228.157C32.6568 228.598 32.7533 229.023 32.8911 229.427M44.5374 228.112C47.0132 228.62 48.9924 230.67 49.2913 233.317C49.6631 236.61 47.2952 239.581 44.0025 239.952C42.4754 240.125 41.0177 239.708 39.8563 238.883M44.5374 228.112C43.934 227.988 43.3012 227.955 42.656 228.028C41.129 228.201 39.8009 228.932 38.8527 229.995M32.8911 229.427C33.4516 229.171 34.0613 228.999 34.7065 228.926C36.2335 228.753 37.6913 229.17 38.8527 229.995M32.8911 229.427C30.591 230.474 29.1187 232.914 29.4176 235.561C29.7894 238.854 32.7602 241.222 36.053 240.85C37.58 240.678 38.9081 239.946 39.8563 238.883" stroke="#EAB308" stroke-linecap="round" stroke-linejoin="round"/>
</g>
</g>
<g filter="url(#filter3_d_522_100250)">
<rect x="88.2012" y="19.2651" width="48" height="48" rx="8" transform="rotate(-14.8046 88.2012 19.2651)" fill="white" shape-rendering="crispEdges"/>
<g clip-path="url(#clip2_522_100250)">
<path d="M113.403 41.5657C119.687 39.9049 121.728 36.537 120.042 30.1574C121.728 36.537 125.147 38.4618 131.45 36.796C125.147 38.4618 123.145 41.9013 124.811 48.2043C123.145 41.9013 119.687 39.9049 113.403 41.5657Z" fill="#FF008A"/>
<path d="M113.403 41.5657C119.687 39.9049 121.728 36.537 120.042 30.1574C121.728 36.537 125.147 38.4618 131.45 36.796C125.147 38.4618 123.145 41.9013 124.811 48.2043C123.145 41.9013 119.687 39.9049 113.403 41.5657Z" fill="white" fill-opacity="0.8"/>
<path d="M113.403 41.5657C119.687 39.9049 121.728 36.537 120.042 30.1574C121.728 36.537 125.147 38.4618 131.45 36.796C125.147 38.4618 123.145 41.9013 124.811 48.2043C123.145 41.9013 119.687 39.9049 113.403 41.5657Z" stroke="#FF008A" stroke-width="1.33333" stroke-linejoin="round"/>
<path d="M102.773 32.6529C106.813 31.5852 108.125 29.4201 107.041 25.3189C108.125 29.4201 110.323 30.6575 114.375 29.5866C110.323 30.6575 109.036 32.8686 110.107 36.9205C109.036 32.8686 106.813 31.5852 102.773 32.6529Z" stroke="#FF008A" stroke-width="1.33333" stroke-linejoin="round"/>
</g>
</g>
<defs>
<filter id="filter0_d_522_100250" x="62.8273" y="45.6271" width="52.2678" height="52.2678" filterUnits="userSpaceOnUse" color-interpolation-filters="sRGB">
<feFlood flood-opacity="0" result="BackgroundImageFix"/>
<feColorMatrix in="SourceAlpha" type="matrix" values="0 0 0 0 0 0 0 0 0 0 0 0 0 0 0 0 0 0 127 0" result="hardAlpha"/>
<feOffset/>
<feGaussianBlur stdDeviation="3.08635"/>
<feComposite in2="hardAlpha" operator="out"/>
<feColorMatrix type="matrix" values="0 0 0 0 0 0 0 0 0 0 0 0 0 0 0 0 0 0 0.15 0"/>
<feBlend mode="normal" in2="BackgroundImageFix" result="effect1_dropShadow_522_100250"/>
<feBlend mode="normal" in="SourceGraphic" in2="effect1_dropShadow_522_100250" result="shape"/>
</filter>
<filter id="filter1_d_522_100250" x="-0.629526" y="182.37" width="42.8924" height="42.8924" filterUnits="userSpaceOnUse" color-interpolation-filters="sRGB">
<feFlood flood-opacity="0" result="BackgroundImageFix"/>
<feColorMatrix in="SourceAlpha" type="matrix" values="0 0 0 0 0 0 0 0 0 0 0 0 0 0 0 0 0 0 127 0" result="hardAlpha"/>
<feOffset/>
<feGaussianBlur stdDeviation="2.31476"/>
<feComposite in2="hardAlpha" operator="out"/>
<feColorMatrix type="matrix" values="0 0 0 0 0 0 0 0 0 0 0 0 0 0 0 0 0 0 0.15 0"/>
<feBlend mode="normal" in2="BackgroundImageFix" result="effect1_dropShadow_522_100250"/>
<feBlend mode="normal" in="SourceGraphic" in2="effect1_dropShadow_522_100250" result="shape"/>
</filter>
<filter id="filter2_d_522_100250" x="12.692" y="204.692" width="52.5393" height="52.5395" filterUnits="userSpaceOnUse" color-interpolation-filters="sRGB">
<feFlood flood-opacity="0" result="BackgroundImageFix"/>
<feColorMatrix in="SourceAlpha" type="matrix" values="0 0 0 0 0 0 0 0 0 0 0 0 0 0 0 0 0 0 127 0" result="hardAlpha"/>
<feOffset/>
<feGaussianBlur stdDeviation="3.08635"/>
<feComposite in2="hardAlpha" operator="out"/>
<feColorMatrix type="matrix" values="0 0 0 0 0 0 0 0 0 0 0 0 0 0 0 0 0 0 0.15 0"/>
<feBlend mode="normal" in2="BackgroundImageFix" result="effect1_dropShadow_522_100250"/>
<feBlend mode="normal" in="SourceGraphic" in2="effect1_dropShadow_522_100250" result="shape"/>
</filter>
<filter id="filter3_d_522_100250" x="80.2012" y="-1" width="74.6719" height="74.6716" filterUnits="userSpaceOnUse" color-interpolation-filters="sRGB">
<feFlood flood-opacity="0" result="BackgroundImageFix"/>
<feColorMatrix in="SourceAlpha" type="matrix" values="0 0 0 0 0 0 0 0 0 0 0 0 0 0 0 0 0 0 127 0" result="hardAlpha"/>
<feOffset/>
<feGaussianBlur stdDeviation="4"/>
<feComposite in2="hardAlpha" operator="out"/>
<feColorMatrix type="matrix" values="0 0 0 0 0 0 0 0 0 0 0 0 0 0 0 0 0 0 0.15 0"/>
<feBlend mode="normal" in2="BackgroundImageFix" result="effect1_dropShadow_522_100250"/>
<feBlend mode="normal" in="SourceGraphic" in2="effect1_dropShadow_522_100250" result="shape"/>
</filter>
<clipPath id="clip0_522_100250">
<rect width="18" height="18" fill="white" transform="translate(14.5967 192.712) rotate(15.7456)"/>
</clipPath>
<clipPath id="clip1_522_100250">
<rect width="24" height="24" fill="white" transform="translate(25.6909 220.384) rotate(-6.44237)"/>
</clipPath>
<clipPath id="clip2_522_100250">
<rect width="32" height="32" fill="white" transform="translate(97.98 24.9553) rotate(-14.8046)"/>
</clipPath>
</defs>
</svg>
