<svg width="72" height="72" viewBox="0 0 72 72" fill="none" xmlns="http://www.w3.org/2000/svg">
<g filter="url(#filter0_d_404_70557)">
<rect x="8" y="8" width="56" height="56" rx="8" fill="white" shape-rendering="crispEdges"/>
<path d="M49.3332 31.8163C49.3332 33.8783 48.5414 35.8588 47.1276 37.3239C43.873 40.6973 40.7164 44.2151 37.3402 47.4663C36.5664 48.2007 35.3388 48.1739 34.5982 47.4063L24.8715 37.3239C21.9315 34.2763 21.9315 29.3563 24.8715 26.3088C27.8404 23.2313 32.6771 23.2313 35.646 26.3088L35.9996 26.6752L36.3529 26.309C37.7764 24.8327 39.715 24 41.7402 24C43.7654 24 45.704 24.8326 47.1276 26.3088C48.5416 27.7739 49.3332 29.7544 49.3332 31.8163Z" stroke="#EC4899" stroke-width="1.66667" stroke-linejoin="round"/>
</g>
<defs>
<filter id="filter0_d_404_70557" x="0" y="0" width="72" height="72" filterUnits="userSpaceOnUse" color-interpolation-filters="sRGB">
<feFlood flood-opacity="0" result="BackgroundImageFix"/>
<feColorMatrix in="SourceAlpha" type="matrix" values="0 0 0 0 0 0 0 0 0 0 0 0 0 0 0 0 0 0 127 0" result="hardAlpha"/>
<feOffset/>
<feGaussianBlur stdDeviation="4"/>
<feComposite in2="hardAlpha" operator="out"/>
<feColorMatrix type="matrix" values="0 0 0 0 0 0 0 0 0 0 0 0 0 0 0 0 0 0 0.15 0"/>
<feBlend mode="normal" in2="BackgroundImageFix" result="effect1_dropShadow_404_70557"/>
<feBlend mode="normal" in="SourceGraphic" in2="effect1_dropShadow_404_70557" result="shape"/>
</filter>
</defs>
</svg>
